<?xml version="1.0" encoding="UTF-8" standalone="no"?>
<!DOCTYPE svg PUBLIC "-//W3C//DTD SVG 1.1//EN" "http://www.w3.org/Graphics/SVG/1.1/DTD/svg11.dtd">
<svg width="100%" height="100%" viewBox="0 0 1080 1080" version="1.1" xmlns="http://www.w3.org/2000/svg" xmlns:xlink="http://www.w3.org/1999/xlink" xml:space="preserve" xmlns:serif="http://www.serif.com/" style="fill-rule:evenodd;clip-rule:evenodd;stroke-linejoin:round;stroke-miterlimit:2;">
    <rect id="Artboard1" x="0" y="0" width="1080" height="1080" style="fill:none;"/>
    <g id="Artboard11" serif:id="Artboard1">
        <g transform="matrix(1.20024,0,0,1.20024,-108.129,-39.3716)">
            <path d="M563.501,908.388C451.026,933.474 355.149,905.519 271.181,815.472C271.181,815.472 562.021,802.16 705.438,706.878C706.349,706.273 781.725,679.238 781.725,679.238L908.27,627.862C875.639,716.597 814.08,795.403 727.331,848.657C675.659,880.376 619.949,900.024 563.501,908.388Z" style="fill:rgb(142,63,87);"/>
        </g>
        <g transform="matrix(1.52452,-0.713931,0.713931,1.52452,-27053.9,12896.2)">
            <path d="M18003.6,469.514C18004.3,464.589 18004.4,460.184 18004.4,456.74C18004.4,443.532 17999.1,431.777 17988.5,421.476C17978,410.91 17953.7,399.815 17915.8,388.193C17867.1,373.4 17830.7,360.061 17806.8,348.174C17782.8,336.023 17763.1,318.853 17747.6,296.664C17732,274.212 17724.3,248.721 17724.3,220.193C17724.3,171.589 17742.6,131.834 17779.3,100.929C17816.2,69.759 17865,54.174 17925.6,54.174C18036.2,54.174 18105.2,96.174 18132.6,180.174L18122,251.132C18069.2,145.346 17966.1,146.252 17926.6,150.853C17906.2,153.223 17889.7,155.872 17877.6,165.91C17865.8,175.683 17859.9,187.174 17859.9,200.382C17859.9,215.702 17866.9,227.985 17880.9,237.231C17895.2,246.212 17924.8,258.098 17969.9,272.891C18010.9,285.834 18043.1,298.646 18066.4,311.325C18090,324.004 18108.9,341.306 18123.2,363.23C18137.8,384.891 18145.1,410.117 18145.1,438.909C18145.1,452.123 18143.7,464.721 18140.9,476.703L18003.6,469.514Z" style="fill:rgb(84,84,84);"/>
        </g>
        <g transform="matrix(0.980156,-0.601692,0.601692,0.980156,-500.953,290.019)">
            <path d="M824.693,927.503C880.786,869.176 921.946,792.349 919.31,720.811C903.696,297.124 374.501,385.561 374.501,385.561C506.676,264.394 614.194,278.269 692.831,295.17C815.133,321.456 911.819,387.789 976.324,529.449C1014.49,462.593 1107.29,400.936 1107.29,400.936L1205.37,490.573C1205.37,490.573 1139.12,514.163 1107.4,545.017C1025.13,625.055 1013.32,689.168 1013.32,689.168C1013.32,689.168 1013.16,689.641 1012.86,690.494C1012.92,693.282 1012.94,696.076 1012.94,698.877C1012.94,791.272 982.291,876.564 930.607,945.129L824.693,927.503Z" style="fill:rgb(142,63,87);"/>
        </g>
    </g>
</svg>
